<svg xmlns="http://www.w3.org/2000/svg" viewBox="0 0 32 32">
  <rect width="32" height="32" rx="3" ry="3" fill="#0a0a0a"/>
  <g fill="#f0f0f0" shape-rendering="crispEdges">
    <rect x="8" y="5" width="3" height="3"/>
    <rect x="11" y="5" width="3" height="3"/>
    <rect x="14" y="5" width="3" height="3"/>
    <rect x="17" y="5" width="3" height="3"/>
    <rect x="20" y="5" width="3" height="3"/>
    <rect x="8" y="8" width="3" height="3"/>
    <rect x="20" y="8" width="3" height="3"/>
    <rect x="8" y="11" width="3" height="3"/>
    <rect x="20" y="11" width="3" height="3"/>
    <rect x="8" y="14" width="3" height="3"/>
    <rect x="11" y="14" width="3" height="3"/>
    <rect x="14" y="14" width="3" height="3"/>
    <rect x="17" y="14" width="3" height="3"/>
    <rect x="8" y="17" width="3" height="3"/>
    <rect x="17" y="17" width="3" height="3"/>
    <rect x="8" y="20" width="3" height="3"/>
    <rect x="20" y="20" width="3" height="3"/>
    <rect x="8" y="23" width="3" height="3"/>
    <rect x="20" y="23" width="3" height="3"/>
  </g>
</svg>
