<svg width="32" height="32" viewBox="0 0 32 32" fill="none" xmlns="http://www.w3.org/2000/svg">
<g clip-path="url(#clip0_2_2)">
<rect width="32" height="32" rx="6" fill="black"/>
<rect x="8" y="6" width="4" height="4" fill="white"/>
<rect x="8" y="10" width="4" height="4" fill="white"/>
<rect x="8" y="14" width="4" height="4" fill="white"/>
<rect x="8" y="18" width="4" height="4" fill="white"/>
<rect x="16" y="18" width="4" height="4" fill="white"/>
<rect x="20" y="22" width="4" height="4" fill="white"/>
<rect x="8" y="22" width="4" height="4" fill="white"/>
<rect x="12" y="6" width="4" height="4" fill="white"/>
<rect x="20" y="6" width="4" height="4" fill="white"/>
<rect x="20" y="10" width="4" height="4" fill="white"/>
<rect x="20" y="14" width="4" height="4" fill="white"/>
<rect x="12" y="14" width="4" height="4" fill="white"/>
<rect x="16" y="6" width="4" height="4" fill="white"/>
<rect x="16" y="14" width="4" height="4" fill="white"/>
</g>
<defs>
<clipPath id="clip0_2_2">
<rect width="32" height="32" fill="white"/>
</clipPath>
</defs>
</svg>
